<svg width="110" height="54" viewBox="0 0 110 54" fill="none" xmlns="http://www.w3.org/2000/svg">
<path d="M33.6482 23.24C32.6882 23.24 31.9082 22.9733 31.3082 22.44C30.7216 21.92 30.4282 21.14 30.4282 20.1C30.4282 19.6467 30.4616 19.2333 30.5282 18.86C30.5949 18.4867 30.6616 18.1133 30.7282 17.74C30.8082 17.3533 30.8482 16.9133 30.8482 16.42C30.8482 15.9533 30.7016 15.5267 30.4082 15.14C30.1282 14.7533 29.6016 14.4933 28.8282 14.36V12.66C29.6016 12.5267 30.1282 12.2733 30.4082 11.9C30.7016 11.5133 30.8482 11.08 30.8482 10.6C30.8482 10.1067 30.8082 9.67333 30.7282 9.3C30.6616 8.91333 30.5949 8.53333 30.5282 8.16C30.4616 7.78667 30.4282 7.37333 30.4282 6.92C30.4282 5.88 30.7216 5.1 31.3082 4.58C31.9082 4.04667 32.6882 3.78 33.6482 3.78H34.8082V5.56H34.0282C33.5082 5.56 33.1149 5.68667 32.8482 5.94C32.5949 6.18 32.4682 6.57333 32.4682 7.12C32.4682 7.49333 32.5016 7.85333 32.5682 8.2C32.6349 8.54667 32.7016 8.92 32.7682 9.32C32.8349 9.70667 32.8682 10.16 32.8682 10.68C32.8682 11.3733 32.6949 11.9733 32.3482 12.48C32.0016 12.9867 31.4416 13.3267 30.6682 13.5V13.54C31.4416 13.7 32.0016 14.0333 32.3482 14.54C32.6949 15.0467 32.8682 15.6533 32.8682 16.36C32.8682 16.8667 32.8349 17.32 32.7682 17.72C32.7016 18.1067 32.6349 18.48 32.5682 18.84C32.5016 19.1867 32.4682 19.54 32.4682 19.9C32.4682 20.4467 32.5949 20.84 32.8482 21.08C33.1149 21.3333 33.5082 21.46 34.0282 21.46H34.8082V23.24H33.6482ZM37.3749 20V6H41.9149C43.5549 6 44.9016 6.28667 45.9549 6.86C47.0216 7.43333 47.8083 8.24667 48.3149 9.3C48.8349 10.34 49.0949 11.58 49.0949 13.02C49.0949 14.4467 48.8349 15.6867 48.3149 16.74C47.8083 17.78 47.0216 18.5867 45.9549 19.16C44.9016 19.72 43.5549 20 41.9149 20H37.3749ZM39.4949 18.2H41.8349C43.1016 18.2 44.1016 17.9933 44.8349 17.58C45.5816 17.1667 46.1149 16.5733 46.4349 15.8C46.7683 15.0267 46.9349 14.1 46.9349 13.02C46.9349 11.94 46.7683 11.0067 46.4349 10.22C46.1149 9.43333 45.5816 8.83333 44.8349 8.42C44.1016 7.99333 43.1016 7.78 41.8349 7.78H39.4949V18.2ZM51.4374 20V6H60.3374V7.72H53.5574V12.08H59.7374V13.76H53.5574V18.28H60.3374V20H51.4374ZM67.0032 20L61.8232 6H64.0832L68.2832 17.8L72.5032 6H74.7432L69.5632 20H67.0032ZM76.2551 23.24V21.46H77.0151C77.5351 21.46 77.9284 21.3333 78.1951 21.08C78.4618 20.84 78.5951 20.4467 78.5951 19.9C78.5951 19.54 78.5618 19.1867 78.4951 18.84C78.4284 18.48 78.3618 18.1067 78.2951 17.72C78.2284 17.32 78.1951 16.8667 78.1951 16.36C78.1951 15.6533 78.3684 15.0467 78.7151 14.54C79.0618 14.0333 79.6218 13.7 80.3951 13.54V13.5C79.6218 13.3267 79.0618 12.9867 78.7151 12.48C78.3684 11.9733 78.1951 11.3733 78.1951 10.68C78.1951 10.16 78.2284 9.70667 78.2951 9.32C78.3618 8.92 78.4284 8.54667 78.4951 8.2C78.5618 7.85333 78.5951 7.49333 78.5951 7.12C78.5951 6.57333 78.4618 6.18 78.1951 5.94C77.9284 5.68667 77.5351 5.56 77.0151 5.56H76.2551V3.78H77.4151C78.3751 3.78 79.1484 4.04667 79.7351 4.58C80.3351 5.1 80.6351 5.88 80.6351 6.92C80.6351 7.37333 80.5951 7.78667 80.5151 8.16C80.4484 8.53333 80.3751 8.91333 80.2951 9.3C80.2284 9.67333 80.1951 10.1067 80.1951 10.6C80.1951 11.08 80.3351 11.5133 80.6151 11.9C80.9084 12.2733 81.4484 12.5267 82.2351 12.66V14.36C81.4484 14.4933 80.9084 14.7533 80.6151 15.14C80.3351 15.5267 80.1951 15.9533 80.1951 16.42C80.1951 16.9133 80.2284 17.3533 80.2951 17.74C80.3751 18.1133 80.4484 18.4867 80.5151 18.86C80.5951 19.2333 80.6351 19.6467 80.6351 20.1C80.6351 21.14 80.3351 21.92 79.7351 22.44C79.1484 22.9733 78.3751 23.24 77.4151 23.24H76.2551Z" fill="url(#paint0_linear_4_206)"/>
<path d="M9.42711 48V34H18.3271V35.72H11.5471V40.08H17.7271V41.76H11.5471V46.28H18.3271V48H9.42711ZM20.8529 48V34H25.3929C27.0329 34 28.3796 34.2867 29.4329 34.86C30.4996 35.4333 31.2862 36.2467 31.7929 37.3C32.3129 38.34 32.5729 39.58 32.5729 41.02C32.5729 42.4467 32.3129 43.6867 31.7929 44.74C31.2862 45.78 30.4996 46.5867 29.4329 47.16C28.3796 47.72 27.0329 48 25.3929 48H20.8529ZM22.9729 46.2H25.3129C26.5796 46.2 27.5796 45.9933 28.3129 45.58C29.0596 45.1667 29.5929 44.5733 29.9129 43.8C30.2462 43.0267 30.4129 42.1 30.4129 41.02C30.4129 39.94 30.2462 39.0067 29.9129 38.22C29.5929 37.4333 29.0596 36.8333 28.3129 36.42C27.5796 35.9933 26.5796 35.78 25.3129 35.78H22.9729V46.2ZM40.1554 48.24C39.1554 48.24 38.2487 48.0467 37.4354 47.66C36.6354 47.26 35.9954 46.6533 35.5154 45.84C35.0487 45.0267 34.8154 43.9933 34.8154 42.74V34H36.9354V42.76C36.9354 43.9867 37.2287 44.8867 37.8154 45.46C38.4021 46.0333 39.1954 46.32 40.1954 46.32C41.1821 46.32 41.9687 46.0333 42.5554 45.46C43.1421 44.8867 43.4354 43.9867 43.4354 42.76V34H45.5554V42.74C45.5554 43.9933 45.3087 45.0267 44.8154 45.84C44.3354 46.6533 43.6821 47.26 42.8554 47.66C42.0421 48.0467 41.1421 48.24 40.1554 48.24ZM46.7693 48L51.9293 34H54.2493L59.3693 48H57.1293L55.9293 44.58H50.2093L49.0093 48H46.7693ZM50.8093 42.9H55.3293L53.0693 36.52L50.8093 42.9ZM61.3216 48V34H66.1416C67.2483 34 68.155 34.1867 68.8616 34.56C69.5816 34.9333 70.115 35.44 70.4616 36.08C70.8083 36.7067 70.9816 37.4067 70.9816 38.18C70.9816 39.0467 70.7483 39.8333 70.2816 40.54C69.8283 41.2467 69.115 41.7533 68.1416 42.06L71.1216 48H68.6616L65.9416 42.36H63.4416V48H61.3216ZM63.4416 40.76H66.0216C66.9816 40.76 67.6816 40.5267 68.1216 40.06C68.575 39.5933 68.8016 38.9867 68.8016 38.24C68.8016 37.4933 68.5816 36.9 68.1416 36.46C67.7016 36.0067 66.9883 35.78 66.0016 35.78H63.4416V40.76ZM73.4896 48V34H78.0296C79.6696 34 81.0163 34.2867 82.0696 34.86C83.1363 35.4333 83.9229 36.2467 84.4296 37.3C84.9496 38.34 85.2096 39.58 85.2096 41.02C85.2096 42.4467 84.9496 43.6867 84.4296 44.74C83.9229 45.78 83.1363 46.5867 82.0696 47.16C81.0163 47.72 79.6696 48 78.0296 48H73.4896ZM75.6096 46.2H77.9496C79.2163 46.2 80.2163 45.9933 80.9496 45.58C81.6963 45.1667 82.2296 44.5733 82.5496 43.8C82.8829 43.0267 83.0496 42.1 83.0496 41.02C83.0496 39.94 82.8829 39.0067 82.5496 38.22C82.2296 37.4333 81.6963 36.8333 80.9496 36.42C80.2163 35.9933 79.2163 35.78 77.9496 35.78H75.6096V46.2ZM94.0121 48.24C92.6254 48.24 91.4121 47.9333 90.3721 47.32C89.3321 46.7067 88.5188 45.86 87.9321 44.78C87.3454 43.6867 87.0521 42.4267 87.0521 41C87.0521 39.5733 87.3454 38.32 87.9321 37.24C88.5188 36.1467 89.3321 35.2933 90.3721 34.68C91.4121 34.0667 92.6254 33.76 94.0121 33.76C95.3988 33.76 96.6121 34.0667 97.6521 34.68C98.6921 35.2933 99.4988 36.1467 100.072 37.24C100.659 38.32 100.952 39.5733 100.952 41C100.952 42.4267 100.659 43.6867 100.072 44.78C99.4988 45.86 98.6921 46.7067 97.6521 47.32C96.6121 47.9333 95.3988 48.24 94.0121 48.24ZM94.0121 46.34C94.9721 46.34 95.8054 46.1267 96.5121 45.7C97.2321 45.2733 97.7921 44.66 98.1921 43.86C98.5921 43.06 98.7921 42.1067 98.7921 41C98.7921 39.8933 98.5921 38.94 98.1921 38.14C97.7921 37.34 97.2321 36.7267 96.5121 36.3C95.8054 35.8733 94.9721 35.66 94.0121 35.66C93.0521 35.66 92.2121 35.8733 91.4921 36.3C90.7721 36.7267 90.2121 37.34 89.8121 38.14C89.4254 38.94 89.2321 39.8933 89.2321 41C89.2321 42.1067 89.4254 43.06 89.8121 43.86C90.2121 44.66 90.7721 45.2733 91.4921 45.7C92.2121 46.1267 93.0521 46.34 94.0121 46.34Z" fill="url(#paint1_linear_4_206)"/>
<defs>
<linearGradient id="paint0_linear_4_206" x1="55.535" y1="0" x2="88.8561" y2="0" gradientUnits="userSpaceOnUse">
<stop stop-color="#25A2EE"/>
<stop offset="0.4375" stop-color="#C32BB7"/>
</linearGradient>
<linearGradient id="paint1_linear_4_206" x1="54.9505" y1="28" x2="109.901" y2="28" gradientUnits="userSpaceOnUse">
<stop stop-color="#25A2EE"/>
<stop offset="0.4375" stop-color="#C32BB7"/>
</linearGradient>
</defs>
</svg>
