<svg width="140" height="86" viewBox="0 0 140 86" fill="none" xmlns="http://www.w3.org/2000/svg">
<g clip-path="url(#clip0_12_222)">
<path d="M33.0341 22.7824H59.4394V24.8811H35.4546V40.6768H58.0091V42.7755H35.4546V60.1177H59.7144V62.2164H33.0341V22.7824ZM61.8049 22.7824H64.6104L77.0429 40.1245L89.7505 22.7824L107.035 0.753906L78.6382 41.9471L93.2711 62.2164H90.3556L77.0429 43.7697L63.6752 62.2164H60.8147L75.5576 41.9471L61.8049 22.7824ZM94.3164 24.8811V22.7824H124.407V24.8811H110.545V62.2164H108.124V24.8811H94.3164ZM0 22.7824H3.02561L44.7469 85.2144L27.5055 62.2164L2.53051 25.7648L2.42048 62.2164H0L0 22.7824ZM124.164 59.4843C123.669 59.4843 123.298 59.1011 123.298 58.606C123.298 58.1108 123.669 57.7276 124.164 57.7276C124.664 57.7276 125.029 58.1108 125.029 58.606C125.029 59.1011 124.664 59.4843 124.164 59.4843ZM126.542 57.1735H127.837C127.855 57.875 128.367 58.3466 129.121 58.3466C129.962 58.3466 130.439 57.8396 130.439 56.8906V50.8778H131.758V56.8965C131.758 58.606 130.769 59.5904 129.132 59.5904C127.596 59.5904 126.542 58.6355 126.542 57.1735ZM133.483 57.0969H134.79C134.902 57.9045 135.691 58.4173 136.827 58.4173C137.887 58.4173 138.664 57.8691 138.664 57.1146C138.664 56.4661 138.169 56.0771 137.045 55.8118L135.95 55.5466C134.413 55.187 133.713 54.4442 133.713 53.1945C133.713 51.6795 134.949 50.6715 136.803 50.6715C138.528 50.6715 139.788 51.6795 139.865 53.112H138.581C138.458 52.328 137.775 51.8387 136.786 51.8387C135.744 51.8387 135.049 52.3398 135.049 53.1061C135.049 53.7133 135.496 54.0611 136.603 54.3204L137.539 54.5503C139.282 54.9571 140 55.6644 140 56.9436C140 58.5706 138.74 59.5904 136.727 59.5904C134.843 59.5904 133.577 58.6178 133.483 57.0969Z" fill="#CCCCCC"/>
</g>
<defs>
<clipPath id="clip0_12_222">
<rect width="140" height="84.4922" fill="white" transform="translate(0 0.753906)"/>
</clipPath>
</defs>
</svg>
