<svg width="113" height="102" viewBox="0 0 113 102" fill="none" xmlns="http://www.w3.org/2000/svg">
<g clip-path="url(#clip0_4_52)">
<path d="M92.9055 33.2028C91.7031 32.7887 90.4904 32.4051 89.2687 32.0524C89.4739 31.2107 89.6628 30.3792 89.8305 29.5624C92.5838 16.1484 90.7839 5.34184 84.636 1.78381C78.7415 -1.62716 69.1016 1.92955 59.3659 10.4335C58.4064 11.2731 57.4682 12.1369 56.5521 13.024C55.9389 12.4341 55.3148 11.8556 54.6803 11.2889C44.4767 2.19623 34.2493 -1.63602 28.1081 1.93221C22.2189 5.3538 20.475 15.5127 22.9537 28.2254C23.2004 29.4845 23.4788 30.7371 23.7888 31.9819C22.3411 32.3948 20.9442 32.8342 19.6073 33.302C7.6444 37.4882 0.00473022 44.0483 0.00473022 50.853C0.00473022 57.8809 8.20626 64.9301 20.6661 69.2044C21.6763 69.5495 22.6948 69.8693 23.7208 70.1635C23.3876 71.5042 23.0918 72.8541 22.8337 74.2114C20.4706 86.7035 22.316 96.6224 28.1893 100.022C34.2555 103.533 44.437 99.9248 54.3506 91.2268C55.1545 90.5197 55.9406 89.7925 56.7084 89.046C57.7004 90.0067 58.7189 90.9394 59.7627 91.843C69.366 100.137 78.8501 103.485 84.7177 100.076C90.7781 96.555 92.748 85.8995 90.1907 72.9357C89.9892 71.92 89.7633 70.9094 89.5132 69.9048C90.2282 69.6921 90.93 69.4733 91.6141 69.2456C104.567 64.9385 112.995 57.9748 112.995 50.853C112.995 44.0235 105.109 37.4191 92.9055 33.2028ZM90.0962 64.6474C89.4783 64.8525 88.8445 65.0506 88.1983 65.2433C86.7683 60.6996 84.8386 55.8684 82.4769 50.8764C84.7305 46.0036 86.586 41.2341 87.9759 36.7201C89.1318 37.0558 90.2533 37.4098 91.3347 37.7832C101.791 41.3962 108.169 46.7372 108.169 50.853C108.169 55.2367 101.281 60.9277 90.0962 64.6474ZM85.4557 73.8765C86.5865 79.6087 86.7476 84.7916 85.9986 88.8436C85.3259 92.4845 83.9727 94.9116 82.299 95.8839C78.7385 97.9526 71.1235 95.2637 62.9109 88.1707C61.9401 87.3305 60.9927 86.4634 60.0698 85.5704C63.2539 82.0757 66.4357 78.0131 69.5412 73.5009C75.0036 73.0145 80.1641 72.2189 84.8439 71.1332C85.0694 72.0426 85.2733 72.9574 85.4557 73.8765ZM38.5257 95.5264C35.0468 96.7592 32.2759 96.7947 30.6009 95.8254C27.0369 93.7625 25.5552 85.7981 27.5762 75.1151C27.8165 73.8527 28.0915 72.5973 28.4011 71.3502C33.0293 72.3779 38.1523 73.1168 43.6275 73.5625C46.7542 77.9777 50.0278 82.0358 53.327 85.5894C52.6259 86.2704 51.9082 86.9339 51.1745 87.5793C46.7904 91.4253 42.3974 94.1541 38.5257 95.5264ZM22.2277 64.6204C16.7181 62.7302 12.168 60.2739 9.04928 57.5934C6.24658 55.1849 4.83199 52.7932 4.83199 50.853C4.83199 46.7235 10.9657 41.4564 21.1962 37.8767C22.4378 37.4426 23.7372 37.0328 25.0856 36.6483C26.4997 41.2642 28.3543 46.0905 30.5925 50.9708C28.3252 55.9233 26.4441 60.8267 25.0163 65.4971C24.0797 65.2278 23.1499 64.9355 22.2277 64.6204ZM27.691 27.2947C25.5675 16.4031 26.9777 8.18712 30.5268 6.12504C34.3067 3.92873 42.6653 7.06017 51.4755 14.9116C52.05 15.4247 52.6152 15.9483 53.1708 16.482C49.8879 20.0201 46.6443 24.0481 43.5454 28.4372C38.2313 28.9315 33.1445 29.7254 28.4678 30.789C28.1796 29.6311 27.9206 28.4661 27.691 27.2952V27.2947ZM76.4301 39.374C75.3255 37.4589 74.1798 35.568 72.994 33.7025C76.5991 34.1601 80.0533 34.7674 83.2969 35.5098C82.3233 38.6426 81.1095 41.9176 79.6808 45.2754C78.6365 43.2867 77.5527 41.3192 76.4301 39.374ZM56.5543 19.9443C58.7806 22.3652 61.0104 25.0679 63.2036 28.0004C58.7546 27.7895 54.2981 27.7886 49.849 27.9977C52.0444 25.0922 54.2932 22.3931 56.5543 19.9443ZM36.551 39.4072C35.4425 41.3368 34.3789 43.292 33.3612 45.2714C31.9559 41.9255 30.7532 38.6355 29.7711 35.4584C32.9949 34.7346 36.4327 34.1428 40.0149 33.6936C38.8159 35.5705 37.6609 37.4754 36.551 39.4067V39.4072ZM40.1177 68.357C36.4168 67.9424 32.9274 67.3811 29.7045 66.6768C30.702 63.443 31.9312 60.083 33.367 56.6653C34.3887 58.6462 35.4566 60.6026 36.57 62.5331C37.7149 64.5177 38.9004 66.4615 40.1177 68.357ZM56.6876 82.1027C54.3996 79.6256 52.1177 76.8848 49.8892 73.9372C52.0528 74.0223 54.2583 74.0657 56.5 74.0657C58.8031 74.0657 61.0797 74.0139 63.3205 73.9138C61.1203 76.9145 58.8989 79.6592 56.6876 82.1027ZM79.7262 56.4908C81.2366 59.9461 82.5095 63.2884 83.5203 66.4668C80.2444 67.2172 76.7073 67.8214 72.9804 68.2702C74.1746 66.37 75.3311 64.4462 76.4491 62.4999C77.5858 60.5215 78.6784 58.518 79.7262 56.4908ZM72.268 60.0794C70.5564 63.0635 68.7487 65.991 66.8475 68.8571C63.4038 69.1019 59.9524 69.2235 56.5 69.2217C52.9837 69.2217 49.5635 69.1118 46.27 68.8974C44.3192 66.0379 42.477 63.1053 40.7471 60.106H40.7476C39.0259 57.1225 37.4177 54.0745 35.9265 50.9686C37.4139 47.8619 39.0172 44.8125 40.733 41.8268L40.7326 41.8272C42.4477 38.8407 44.2753 35.9207 46.2113 33.0734C49.5714 32.8183 53.0172 32.6854 56.4996 32.6854H56.5C59.9983 32.6854 63.4485 32.8196 66.8078 33.0765C68.7243 35.9195 70.5401 38.8295 72.2521 41.8011C73.9736 44.7802 75.5981 47.8148 77.1231 50.8999C75.6138 54.0166 73.9944 57.0784 72.268 60.0794ZM82.2253 5.98062C86.0087 8.17073 87.4802 17.0025 85.103 28.5842C84.9512 29.3231 84.7808 30.0758 84.5954 30.839C79.9072 29.7528 74.8169 28.9453 69.4874 28.4434C66.3828 24.006 63.1656 19.9718 59.9361 16.4793C60.7825 15.6605 61.649 14.8628 62.5349 14.0872C70.8768 6.80147 78.6731 3.92474 82.2253 5.98062ZM56.5 40.7264C62.0723 40.7264 66.5898 45.2603 66.5898 50.853C66.5898 56.4456 62.0723 60.9796 56.5 60.9796C50.9278 60.9796 46.4103 56.4456 46.4103 50.853C46.4103 45.2603 50.9278 40.7264 56.5 40.7264Z" fill="#00D8FF"/>
</g>
<defs>
<clipPath id="clip0_4_52">
<rect width="113" height="101" fill="white" transform="translate(0 0.5)"/>
</clipPath>
</defs>
</svg>
